<?xml version="1.0" encoding="UTF-8" standalone="no"?>
<svg
   width="1400"
   height="470"
   viewBox="0 0 1400 470"
   version="1.1"
   id="svg49"
   xmlns="http://www.w3.org/2000/svg"
   xmlns:svg="http://www.w3.org/2000/svg">
  <defs
     id="defs21">
    <linearGradient
       id="filmGrad"
       x1="0"
       x2="1"
       y1="0"
       y2="1">
      <stop
         offset="0"
         stop-color="#E1E3E5"
         id="stop1" />
      <stop
         offset=".30"
         stop-color="#8E9499"
         id="stop2" />
      <stop
         offset=".72"
         stop-color="#282C30"
         id="stop3" />
      <stop
         offset="1"
         stop-color="#0B0D0F"
         id="stop4" />
    </linearGradient>
    <linearGradient
       id="bladeSilver"
       x1="0"
       y1="0"
       x2="1"
       y2="1">
      <stop
         offset="0"
         stop-color="#F6F7F7"
         id="stop5" />
      <stop
         offset=".70"
         stop-color="#C6CACD"
         id="stop6" />
      <stop
         offset="1"
         stop-color="#8B9196"
         id="stop7" />
    </linearGradient>
    <linearGradient
       id="silverGrad"
       x1="0"
       y1="0"
       x2="1"
       y2="1">
      <stop
         offset="0"
         stop-color="#FFFFFF"
         id="stop8" />
      <stop
         offset=".50"
         stop-color="#D6D9DC"
         id="stop9" />
      <stop
         offset="1"
         stop-color="#858B91"
         id="stop10" />
    </linearGradient>
    <linearGradient
       id="orangeGrad"
       x1="0"
       y1="0"
       x2="1"
       y2="1">
      <stop
         offset="0"
         stop-color="#FF9C20"
         id="stop11" />
      <stop
         offset=".56"
         stop-color="#F47A00"
         id="stop12" />
      <stop
         offset="1"
         stop-color="#D95F00"
         id="stop13" />
    </linearGradient>
    <radialGradient
       id="lensGrad"
       cx=".36"
       cy=".32"
       r=".76">
      <stop
         offset="0"
         stop-color="#3E4451"
         id="stop14" />
      <stop
         offset=".25"
         stop-color="#202837"
         id="stop15" />
      <stop
         offset=".62"
         stop-color="#0D1118"
         id="stop16" />
      <stop
         offset="1"
         stop-color="#020304"
         id="stop17" />
    </radialGradient>
    <radialGradient
       id="glassGrad"
       cx=".34"
       cy=".28"
       r=".88">
      <stop
         offset="0"
         stop-color="#6A5177"
         stop-opacity=".78"
         id="stop18" />
      <stop
         offset=".30"
         stop-color="#294B71"
         stop-opacity=".68"
         id="stop19" />
      <stop
         offset=".66"
         stop-color="#111827"
         stop-opacity=".78"
         id="stop20" />
      <stop
         offset="1"
         stop-color="#020305"
         id="stop21" />
    </radialGradient>
  </defs>
  <g
     transform="translate(20,20) scale(.98)"
     id="g45">
    <path
       d="M 169.85,63.17 A 145,145 0 0 1 263.56,74.67 L 266.69,135.94 A 96,96 0 0 0 210.03,109.53 Z"
       fill="url(#bladeSilver)"
       stroke="#111214"
       stroke-width="2.8"
       stroke-linejoin="round"
       id="path21" />
    <path
       d="M 278.97,83.39 A 145,145 0 0 1 337.10,157.79 L 295.99,203.32 A 96,96 0 0 0 274.61,144.59 Z"
       fill="url(#orangeGrad)"
       stroke="#111214"
       stroke-width="2.8"
       stroke-linejoin="round"
       id="path22" />
    <path
       d="M 341.83,174.85 A 145,145 0 0 1 330.33,268.56 L 269.06,271.69 A 96,96 0 0 0 295.47,215.03 Z"
       fill="url(#bladeSilver)"
       stroke="#111214"
       stroke-width="2.8"
       stroke-linejoin="round"
       id="path23" />
    <path
       d="M 321.61,283.97 A 145,145 0 0 1 247.21,342.10 L 201.68,300.99 A 96,96 0 0 0 260.41,279.61 Z"
       fill="url(#bladeSilver)"
       stroke="#111214"
       stroke-width="2.8"
       stroke-linejoin="round"
       id="path24" />
    <path
       d="M 230.15,346.83 A 145,145 0 0 1 136.44,335.33 L 133.31,274.06 A 96,96 0 0 0 189.97,300.47 Z"
       fill="url(#orangeGrad)"
       stroke="#111214"
       stroke-width="2.8"
       stroke-linejoin="round"
       id="path25" />
    <path
       d="M 121.03,326.61 A 145,145 0 0 1 62.90,252.21 L 104.01,206.68 A 96,96 0 0 0 125.39,265.41 Z"
       fill="url(#bladeSilver)"
       stroke="#111214"
       stroke-width="2.8"
       stroke-linejoin="round"
       id="path26" />
    <path
       d="M 58.17,235.15 A 145,145 0 0 1 69.67,141.44 L 130.94,138.31 A 96,96 0 0 0 104.53,194.97 Z"
       fill="url(#bladeSilver)"
       stroke="#111214"
       stroke-width="2.8"
       stroke-linejoin="round"
       id="path27" />
    <path
       d="M 78.39,126.03 A 145,145 0 0 1 152.79,67.90 L 198.32,109.01 A 96,96 0 0 0 139.59,130.39 Z"
       fill="url(#bladeSilver)"
       stroke="#111214"
       stroke-width="2.8"
       stroke-linejoin="round"
       id="path28" />
    <path
       d="M 126 74 Q 194 49 286 80 L 280 119 Q 193 92 117 109 Z"
       fill="url(#filmGrad)"
       stroke="#111214"
       stroke-width="2.5"
       id="path29" />
    <path
       d="M 128 100 Q 195 78 282 103"
       fill="none"
       stroke="#8A9096"
       stroke-width="1.7"
       opacity=".55"
       id="path30" />
    <rect
       x="136.0"
       y="75.0"
       width="7.4"
       height="15"
       rx="2"
       fill="#050607"
       opacity=".96"
       id="rect30" />
    <rect
       x="154.1"
       y="76.5"
       width="7.4"
       height="15"
       rx="2"
       fill="#050607"
       opacity=".96"
       id="rect31" />
    <rect
       x="172.2"
       y="78.1"
       width="7.4"
       height="15"
       rx="2"
       fill="#050607"
       opacity=".96"
       id="rect32" />
    <rect
       x="190.3"
       y="79.7"
       width="7.4"
       height="15"
       rx="2"
       fill="#050607"
       opacity=".96"
       id="rect33" />
    <rect
       x="208.4"
       y="81.2"
       width="7.4"
       height="15"
       rx="2"
       fill="#050607"
       opacity=".96"
       id="rect34" />
    <rect
       x="226.5"
       y="82.8"
       width="7.4"
       height="15"
       rx="2"
       fill="#050607"
       opacity=".96"
       id="rect35" />
    <rect
       x="244.6"
       y="84.3"
       width="7.4"
       height="15"
       rx="2"
       fill="#050607"
       opacity=".96"
       id="rect36" />
    <rect
       x="262.7"
       y="85.8"
       width="7.4"
       height="15"
       rx="2"
       fill="#050607"
       opacity=".96"
       id="rect37" />
    <circle
       cx="200"
       cy="205"
       r="112"
       fill="url(#silverGrad)"
       stroke="#111214"
       stroke-width="3"
       id="circle37" />
    <circle
       cx="200"
       cy="205"
       r="100"
       fill="#050607"
       stroke="#111214"
       stroke-width="2"
       id="circle38" />
    <circle
       cx="200"
       cy="205"
       r="89"
       fill="#2D3238"
       stroke="url(#silverGrad)"
       stroke-width="4"
       id="circle39" />
    <circle
       cx="200"
       cy="205"
       r="77"
       fill="url(#lensGrad)"
       stroke="#050607"
       stroke-width="6"
       id="circle40" />
    <circle
       cx="200"
       cy="205"
       r="59"
       fill="url(#glassGrad)"
       stroke="#050607"
       stroke-width="4"
       id="circle41" />
    <circle
       cx="200"
       cy="205"
       r="39"
       fill="#050607"
       opacity=".82"
       id="circle42" />
    <ellipse
       cx="168"
       cy="171"
       rx="10"
       ry="18"
       fill="#B9C5D8"
       opacity=".20"
       transform="rotate(-38 168 171)"
       id="ellipse42" />
    <circle
       cx="239"
       cy="234"
       r="12"
       fill="#E95984"
       opacity=".88"
       id="circle43" />
    <circle
       cx="218"
       cy="187"
       r="8"
       fill="#9AAED1"
       opacity=".48"
       id="circle44" />
    <circle
       cx="241"
       cy="231"
       r="4.6"
       fill="#FFE1E8"
       opacity=".82"
       id="circle45" />
  </g>
  <path
     d="m 405.62666,245 h 25.06641 l 6.54511,-39.75811 h 46.79063 l 3.41182,-20.61015 H 440.65 l 3.6207,-22.07237 h 49.8543 l 3.62071,-21.30644 H 422.825 Z m 113.31876,1.67109 c 27.08564,0 44.21436,-20.67978 44.21436,-44.91064 0,-19.4961 -13.02061,-31.95967 -33.97891,-31.95967 -25.97159,0 -44.21436,19.56572 -44.21436,44.98027 0,19.4961 13.09024,31.89004 33.97891,31.89004 z m 1.53183,-19.07832 c -6.54511,0 -11.5584,-4.31699 -11.5584,-12.67246 0,-12.18506 6.54512,-26.04121 18.73018,-26.04121 6.54512,0 11.5584,4.38662 11.5584,12.74209 0,12.0458 -6.40586,25.97158 -18.73018,25.97158 z m 75.44063,19.07832 c 20.26201,0 36.41592,-12.39394 39.89736,-30.77597 h -23.11679 c -1.94961,6.61474 -8.07696,11.76728 -15.73614,11.76728 -6.89326,0 -10.37471,-4.45625 -10.37471,-12.32432 0,-12.39394 6.75401,-26.52861 19.35684,-26.52861 7.31104,0 9.60879,5.36143 9.33028,11.5584 h 23.04716 c 2.08887,-18.45166 -12.46357,-30.56709 -32.16855,-30.56709 -26.52862,0 -43.65733,21.16719 -43.65733,45.0499 0,19.21758 12.81172,31.82041 33.42188,31.82041 z m 63.04668,-0.0696 c 11.00137,0 19.28721,-5.08291 25.62344,-13.508 L 682.63839,245 h 23.67383 l 12.18506,-73.52813 h -24.02197 l -6.61475,39.967 c -1.67109,10.02656 -7.31103,14.6917 -14.90059,14.6917 -7.58955,0 -11.14062,-4.73477 -9.74804,-13.43838 l 6.89326,-41.22032 h -24.02197 l -7.65918,46.2336 c -2.99405,18.10351 4.52587,28.89599 20.54052,28.89599 z m 86.85978,0.20889 c 21.51534,0 37.73887,-11.48877 37.73887,-27.43379 0,-9.67842 -6.2666,-15.24873 -19.84424,-17.825 l -14.34355,-2.71553 c -4.03848,-0.76591 -6.12735,-2.29775 -6.12735,-4.94365 0,-4.17773 4.8044,-7.51992 11.27989,-7.51992 6.2666,0 9.95693,3.34219 9.3999,8.98213 h 22.00273 c 0.20889,-1.25332 0.27852,-2.6459 0.27852,-3.75996 0,-13.36875 -12.0458,-21.65459 -31.05449,-21.65459 -20.95831,0 -36.13741,10.65322 -36.13741,26.38935 0,10.16582 6.89326,16.71094 19.84424,19.14795 l 12.95098,2.36739 c 4.73476,0.90517 7.03252,2.36738 7.03252,5.01328 0,4.38662 -5.43106,7.45029 -12.11543,7.45029 -6.82364,0 -10.44434,-3.1333 -10.16582,-8.84287 h -23.53457 c 0,0.41777 0,0.76592 0,1.18369 0,15.10947 13.508,24.16123 32.79521,24.16123 z"
     id="text45"
     style="font-style:italic;font-weight:800;font-size:142.6px;font-family:'Inter Display', Inter, Arial, sans-serif;letter-spacing:-7;fill:#f5f5f3"
     aria-label="Focus" />
  <path
     d="m 787.42665,245 h 71.02149 l 3.48144,-21.30645 H 815.9745 l 13.7169,-82.44062 h -25.06641 z m 101.96924,1.60146 c 9.67842,0 17.96426,-4.38662 23.1168,-12.5332 h 0.27852 L 910.98086,245 h 23.39531 l 12.18506,-73.52813 h -23.39532 l -1.60146,9.60879 h -0.34814 c -3.13331,-7.45029 -9.74805,-11.21025 -19.28721,-11.21025 -18.66055,0 -34.1878,15.73613 -37.94776,38.22627 -3.82959,23.25605 6.19697,38.50478 25.41455,38.50478 z m 9.88731,-19.14795 c -8.77324,0 -13.02061,-7.2414 -11.00137,-19.35683 1.94961,-11.97617 8.56436,-19.14795 17.40723,-19.14795 9.05176,0 13.99541,7.51992 12.0458,19.14795 -1.87998,11.76728 -9.3999,19.35683 -18.45166,19.35683 z m 87.83457,19.14795 c 23.74343,0 36.97293,-23.32568 36.97293,-45.11953 0,-19.00869 -10.3747,-31.61152 -27.016,-31.61152 -8.77324,0 -17.3376,3.55107 -21.4457,10.79248 h -0.0696 l 6.2666,-39.40996 H 957.87363 L 940.74492,245 h 23.67382 l 2.01924,-12.18506 h 0.0696 c 2.6459,9.05176 9.95694,13.78652 20.61016,13.78652 z m -6.54512,-19.14795 c -7.10215,0 -11.41914,-4.94365 -11.41914,-13.15986 0,-11.83691 7.79844,-25.34492 20.33164,-25.34492 6.82364,0 10.58355,4.38662 10.58355,12.32432 0,11.90654 -6.82359,26.18046 -19.49605,26.18046 z"
     id="text46"
     style="font-style:italic;font-weight:800;font-size:142.6px;font-family:'Inter Display', Inter, Arial, sans-serif;letter-spacing:-7;fill:url(#orangeGrad)"
     aria-label="Lab" />
  <line
     x1="405"
     y1="303.88"
     x2="458.36"
     y2="303.88"
     stroke="#F5F5F3"
     stroke-width="2.208"
     id="line46" />
  <path
     d="m 482.4543,316.76001 h 5.32594 v -12.19359 h 7.10125 c 8.08234,0 12.10016,-4.88211 12.10016,-11.30594 0,-6.42383 -3.99446,-11.30594 -12.05344,-11.30594 H 482.4543 Z m 5.32594,-16.70195 v -13.54844 h 6.54063 c 5.16242,0 7.26476,2.82648 7.26476,6.75086 0,3.92437 -2.10234,6.79758 -7.21805,6.79758 z m 40.08828,16.70195 h 5.32594 v -13.15133 h 7.10125 c 0.0934,0 0.21023,0 0.30367,0 l 7.05453,13.15133 h 6.05008 l -7.66187,-14.06234 c 4.22804,-1.58844 6.35375,-5.13907 6.35375,-9.81094 0,-6.42383 -3.99446,-10.93219 -12.05344,-10.93219 h -12.47391 z m 5.32594,-17.70641 v -12.54398 h 6.54062 c 5.13907,0 7.26477,2.45273 7.26477,6.37711 0,3.90101 -2.1257,6.16687 -7.21805,6.16687 z m 54.89813,18.1736 c 9.01671,0 15.67414,-6.7275 15.67414,-17.84657 0,-11.16578 -6.65743,-17.89328 -15.67414,-17.89328 -9.04008,0 -15.72086,6.7275 -15.72086,17.89328 0,11.11907 6.68078,17.84657 15.72086,17.84657 z m 0,-4.85875 c -5.98,0 -10.44165,-4.57844 -10.44165,-12.98782 0,-8.43273 4.46165,-13.03453 10.44165,-13.03453 5.93328,0 10.39492,4.57844 10.39492,13.03453 0,8.40938 -4.46164,12.98782 -10.39492,12.98782 z m 48.21733,4.39156 c 10.5818,0 16.72531,-6.56398 16.72531,-17.44945 0,-10.81539 -6.14351,-17.35602 -16.39828,-17.35602 h -11.65633 v 34.80547 z m -6.00336,-4.67188 v -25.46171 h 5.98 c 7.5918,0 11.51617,4.50836 11.51617,12.68414 0,8.24586 -3.92437,12.77757 -11.79648,12.77757 z m 57.7947,5.20915 c 8.31593,0 13.82875,-5.18579 13.82875,-12.49727 v -22.84547 h -5.3493 v 22.40164 c 0,4.69524 -3.24695,8.1057 -8.47945,8.1057 -5.25586,0 -8.54954,-3.41046 -8.54954,-8.1057 v -22.40164 h -5.32593 v 22.84547 c 0,7.31148 5.48945,12.49727 13.87547,12.49727 z m 50.71679,-0.0701 c 7.68524,0 13.29149,-4.85875 14.36602,-11.74977 h -5.37266 c -0.88765,4.43828 -4.60179,6.89102 -8.94664,6.89102 -5.95664,0 -10.44164,-4.53172 -10.44164,-12.98782 0,-8.40937 4.46164,-13.03453 10.44164,-13.03453 4.34485,0 8.05899,2.42938 8.94664,6.86766 h 5.3493 c -1.16797,-7.38156 -7.00781,-11.72641 -14.34266,-11.72641 -9.01672,0 -15.67414,6.7275 -15.67414,17.89328 0,11.11907 6.63406,17.84657 15.67414,17.84657 z m 33.59438,-30.69422 h 10.86211 v 30.22703 h 5.3493 v -30.22703 h 10.81539 v -4.57844 h -27.0268 z m 53.02937,-4.57844 h -5.32594 v 34.80547 h 5.32594 z m 36.93478,35.27266 c 9.01672,0 15.67414,-6.7275 15.67414,-17.84657 0,-11.16578 -6.65742,-17.89328 -15.67414,-17.89328 -9.04008,0 -15.72086,6.7275 -15.72086,17.89328 0,11.11907 6.68078,17.84657 15.72086,17.84657 z m 0,-4.85875 c -5.98,0 -10.44164,-4.57844 -10.44164,-12.98782 0,-8.43273 4.46164,-13.03453 10.44164,-13.03453 5.93328,0 10.39492,4.57844 10.39492,13.03453 0,8.40938 -4.46164,12.98782 -10.39492,12.98782 z m 36.88803,4.39156 h 5.39601 v -18.5707 c 0,-1.79868 -0.18687,-5.39602 -0.39711,-9.76422 2.52281,4.67187 3.8543,7.07789 5.55953,9.81094 l 11.74977,18.52398 h 6.16687 v -34.80547 h -5.39601 v 19.80875 c 0,2.00891 0.0934,5.25586 0.35039,8.61961 -1.54172,-3.34039 -3.1068,-5.98 -4.18133,-7.70859 l -13.10461,-20.71977 h -6.14351 z m 62.58337,0.58398 c 8.17578,0 12.89437,-4.29812 12.89437,-10.20804 0,-6.28367 -5.58289,-8.66633 -10.02117,-9.81094 l -3.38711,-0.88766 c -2.66297,-0.70078 -6.26031,-1.93882 -6.26031,-5.2325 0,-2.94328 2.66297,-5.09234 6.89102,-5.09234 3.94773,0 6.77422,1.82203 7.12461,4.99891 h 5.18578 c -0.16352,-5.53618 -5.04563,-9.62407 -12.1936,-9.62407 -7.00781,0 -12.33375,3.99446 -12.33375,10.02118 0,4.76531 3.36375,7.68523 9.06344,9.20359 l 4.06453,1.12125 c 3.7375,1.00445 6.61071,2.19578 6.61071,5.2325 0,3.36375 -3.24696,5.60625 -7.66188,5.60625 -4.01781,0 -7.38156,-1.77531 -7.68523,-5.58289 h -5.3493 c 0.32703,6.35375 5.2325,10.25476 13.05789,10.25476 z"
     id="text47"
     style="font-weight:500;font-size:47.84px;font-family:Inter, Arial, sans-serif;letter-spacing:14.72;fill:#f5f5f3"
     aria-label="PRODUCTIONS" />
  <line
     x1="924.8000000000001"
     y1="303.88"
     x2="980.0"
     y2="303.88"
     stroke="#F5F5F3"
     stroke-width="2.208"
     id="line47" />
</svg>
